<svg width="24" height="24" viewBox="0 0 24 24" fill="none" xmlns="http://www.w3.org/2000/svg">
<g clip-path="url(#clip0_0_2417)">
<path d="M12.0019 24C18.6293 24 24.0019 18.6274 24.0019 12C24.0019 5.37258 18.6293 0 12.0019 0C5.37448 0 0.0018959 5.37258 0.0018959 12C0.0018959 18.6274 5.37448 24 12.0019 24Z" fill="#1769FF"/>
<path d="M8.4789 6.5625C8.99634 6.5625 9.46866 6.60858 9.89586 6.69978C10.3231 6.79098 10.6879 6.94074 10.9922 7.14906C11.2965 7.35738 11.5327 7.63386 11.7007 7.97946C11.8687 8.32506 11.9522 8.7513 11.9522 9.25914C11.9522 9.8073 11.8274 10.2643 11.5787 10.63C11.3301 10.9958 10.9615 11.2953 10.4747 11.5286C11.1448 11.7215 11.645 12.0595 11.9752 12.5414C12.3055 13.0233 12.4706 13.6051 12.4706 14.2857C12.4706 14.8339 12.364 15.3091 12.1509 15.7103C11.9378 16.1116 11.6507 16.439 11.2898 16.6924C10.9288 16.9468 10.5179 17.134 10.0562 17.2559C9.59154 17.3779 9.1125 17.4393 8.6325 17.4383H3.36115V6.5625H8.4789ZM8.17458 10.9641C8.60082 10.9641 8.95122 10.8623 9.22578 10.6598C9.50034 10.4563 9.63762 10.127 9.63666 9.67002C9.63666 9.41658 9.59058 9.20826 9.49938 9.04602C9.40818 8.88378 9.28626 8.7561 9.13362 8.6649C8.98098 8.5737 8.80626 8.51034 8.6085 8.47482C8.40498 8.4393 8.19858 8.42106 7.99122 8.42202H5.75346V10.966L8.17458 10.9641ZM8.31186 15.5788C8.53746 15.5798 8.7621 15.5567 8.98194 15.5107C9.19506 15.4646 9.38322 15.3887 9.54546 15.2822C9.7077 15.1756 9.8373 15.0307 9.93426 14.8483C10.0303 14.6659 10.0792 14.4316 10.0792 14.1475C10.0792 13.5897 9.92178 13.1903 9.6069 12.9523C9.29202 12.7132 8.87538 12.5942 8.35794 12.5942H5.75346V15.5798L8.31186 15.5788ZM15.4792 15.3503C15.8037 15.6652 16.2712 15.8227 16.8808 15.8227C17.3176 15.8227 17.693 15.7132 18.0079 15.4953C18.3227 15.2774 18.5157 15.046 18.5867 14.8022H20.4904C20.1861 15.7468 19.7186 16.4217 19.0888 16.8278C18.4591 17.2339 17.6978 17.4374 16.804 17.4374C16.1848 17.4374 15.6261 17.3385 15.1288 17.1407C14.6315 16.943 14.2101 16.6607 13.8645 16.295C13.5189 15.9292 13.252 15.4934 13.0648 14.9855C12.8776 14.4777 12.7835 13.919 12.7835 13.3103C12.7835 12.7219 12.8795 12.1737 13.0725 11.6659C13.2655 11.158 13.54 10.7193 13.8952 10.3487C14.2504 9.97818 14.6747 9.68634 15.1672 9.47322C15.6597 9.2601 16.2059 9.15354 16.805 9.15354C17.4751 9.15354 18.0587 9.28314 18.557 9.54234C19.0543 9.80154 19.4632 10.1491 19.7829 10.5859C20.1026 11.0227 20.3339 11.5199 20.476 12.0787C20.6181 12.6374 20.669 13.2211 20.6287 13.8307H14.9474C14.9771 14.5286 15.1547 15.0364 15.4792 15.3503ZM17.9243 11.2079C17.6651 10.9238 17.2715 10.7817 16.7435 10.7817C16.3979 10.7817 16.1109 10.8403 15.8834 10.9564C15.6549 11.0735 15.4725 11.2175 15.3352 11.3903C15.1979 11.5631 15.1019 11.7455 15.0463 11.9385C14.9906 12.1315 14.957 12.3043 14.9474 12.4559H18.4658C18.3631 11.9087 18.1826 11.4921 17.9243 11.2079ZM14.5768 7.1145H18.9727V8.3337H14.5768V7.1145Z" fill="white"/>
</g>
<defs>
<clipPath id="clip0_0_2417">
<rect width="24" height="24" fill="white"/>
</clipPath>
</defs>
</svg>
