<svg width="22" height="24" viewBox="0 0 22 24" fill="none" xmlns="http://www.w3.org/2000/svg">
<g clip-path="url(#clip0_0_2425)">
<path d="M17.1485 17.0182C15.9075 18.1091 14.2152 18.7636 12.41 18.7636C8.34849 18.7636 5.41516 15.9273 5.41516 12C5.41516 8.07273 8.34849 5.34545 12.41 5.34545C14.2152 5.34545 15.9075 5.89091 17.1485 6.98182L18.0511 7.74545L21.8869 4.03636L20.8716 3.16364C18.728 1.09091 15.6818 0 12.41 0C5.18951 0 -0.000228882 5.01818 -0.000228882 11.8909C-0.000228882 18.7636 5.30233 24 12.41 24C15.6818 24 18.728 22.9091 20.9844 20.8364L21.8869 19.9636L18.0511 16.2545L17.1485 17.0182Z" fill="black"/>
<path d="M12.1793 16.0376C14.4848 16.0376 16.3537 14.2304 16.3537 12.0012C16.3537 9.77199 14.4848 7.96484 12.1793 7.96484C9.87391 7.96484 8.00499 9.77199 8.00499 12.0012C8.00499 14.2304 9.87391 16.0376 12.1793 16.0376Z" fill="#DEC64A"/>
</g>
<defs>
<clipPath id="clip0_0_2425">
<rect width="22" height="24" fill="white"/>
</clipPath>
</defs>
</svg>
