<svg viewBox="0 0 16 16" fill="none" xmlns="http://www.w3.org/2000/svg">
<path d="M8.00098 0C10.1736 4.79548e-08 10.4468 0.0100442 11.2998 0.0488281C12.1505 0.0870007 12.7321 0.222212 13.2412 0.419922C13.7666 0.624146 14.2136 0.897525 14.6582 1.34277C15.1026 1.78796 15.3763 2.23383 15.5811 2.75977C15.7788 3.26799 15.9134 3.85044 15.9521 4.70215C15.9909 5.55484 16 5.82778 16 8C16 10.1722 15.9909 10.4445 15.9521 11.2979C15.914 12.1495 15.7788 12.7317 15.5811 13.2402C15.3763 13.7662 15.1034 14.2127 14.6582 14.6572C14.2129 15.1018 13.7663 15.3753 13.2402 15.5801C12.7318 15.7778 12.1503 15.9124 11.2988 15.9512C10.4458 15.9906 10.1726 16 8 16C5.82782 16 5.55544 15.9899 4.70215 15.9512C3.85047 15.9124 3.26897 15.7778 2.75977 15.5801C2.2335 15.3753 1.78792 15.1015 1.34277 14.6572C0.897617 14.2129 0.624146 13.7662 0.419922 13.2402C0.222154 12.7317 0.0876137 12.1496 0.0488281 11.2979C0.00941703 10.4452 5.59571e-10 10.1722 0 8C0 5.82777 0.00941704 5.55485 0.0488281 4.70215C0.0876137 3.8505 0.222154 3.26831 0.419922 2.75977C0.624146 2.23349 0.897553 1.78728 1.34277 1.34277C1.78798 0.898288 2.2335 0.624137 2.75977 0.419922C3.26801 0.222162 3.85047 0.0876121 4.70215 0.0488281C5.55548 0.00941125 5.8285 0 8.00098 0ZM8 1.44141C5.86511 1.44141 5.61151 1.44854 4.76855 1.4873C3.98856 1.52276 3.56384 1.65287 3.28223 1.7627C2.90816 1.90745 2.64208 2.08118 2.3623 2.36133C2.08252 2.64148 1.90907 2.90782 1.76367 3.28125C1.65487 3.56368 1.5238 3.98761 1.48828 4.76758C1.45016 5.61115 1.44238 5.86409 1.44238 8C1.44238 10.1364 1.4495 10.3901 1.48828 11.2334C1.52376 12.0131 1.65386 12.4372 1.76367 12.7188C1.90844 13.0922 2.08211 13.3589 2.3623 13.6387C2.64233 13.9183 2.90899 14.091 3.28223 14.2363C3.56397 14.3461 3.98856 14.4762 4.76855 14.5117C5.61127 14.5505 5.86413 14.5586 8 14.5586C10.1365 14.5586 10.3901 14.5505 11.2334 14.5117C12.0132 14.4763 12.4371 14.3461 12.7188 14.2363C13.0922 14.0909 13.3599 13.9182 13.6396 13.6387C13.9194 13.3592 14.0919 13.0921 14.2373 12.7188C14.3464 12.4371 14.4771 12.0131 14.5127 11.2334C14.5515 10.3894 14.5596 10.1364 14.5596 8C14.5596 5.86406 14.5515 5.61117 14.5127 4.76758C14.4772 3.98761 14.3471 3.56285 14.2373 3.28125C14.092 2.90801 13.9197 2.64098 13.6396 2.36133C13.3594 2.08152 13.0923 1.90746 12.7188 1.7627C12.4363 1.65392 12.0131 1.52281 11.2334 1.4873C10.3894 1.44916 10.1355 1.44141 8 1.44141ZM8 3.89258C10.2689 3.89258 12.1084 5.7312 12.1084 8C12.1084 10.2688 10.2689 12.1074 8 12.1074C5.73126 12.1072 3.89258 10.2687 3.89258 8C3.89258 5.73131 5.73126 3.89275 8 3.89258ZM8 5.33301C6.52738 5.33318 5.33398 6.5274 5.33398 8C5.33398 9.4726 6.52738 10.6668 8 10.667C9.47276 10.667 10.667 9.4727 10.667 8C10.667 6.5273 9.47276 5.33301 8 5.33301ZM12.2715 2.76953C12.4613 2.76962 12.6469 2.82611 12.8047 2.93164C12.9625 3.03715 13.0856 3.18695 13.1582 3.3623C13.2308 3.53765 13.2499 3.73089 13.2129 3.91699C13.1758 4.1032 13.0835 4.27497 12.9492 4.40918C12.815 4.54312 12.644 4.63395 12.458 4.6709C12.2718 4.70787 12.0787 4.68894 11.9033 4.61621C11.728 4.54349 11.5781 4.42056 11.4727 4.2627C11.3673 4.10486 11.3105 3.91927 11.3105 3.72949C11.3108 3.47499 11.4128 3.23071 11.5928 3.05078C11.7728 2.87096 12.017 2.76965 12.2715 2.76953Z" fill="white"/>
</svg>
