<svg width="24" height="24" viewBox="0 0 24 24" fill="none" xmlns="http://www.w3.org/2000/svg">
<g clip-path="url(#clip0_0_2421)">
<path d="M12.0079 0.183594C7.0731 0.183594 5.62988 0.188685 5.34934 0.211957C4.33664 0.296139 3.70648 0.455594 3.01995 0.797412C2.49088 1.06014 2.07362 1.36468 1.66181 1.79159C0.911837 2.57014 0.457305 3.52796 0.292765 4.6665C0.212767 5.21923 0.189495 5.33196 0.184768 8.15523C0.18295 9.09632 0.184768 10.3349 0.184768 11.9961C0.184768 16.9271 0.190222 18.3689 0.213858 18.6489C0.295674 19.6343 0.450215 20.2543 0.777477 20.9325C1.40291 22.2307 2.59742 23.2052 4.00465 23.5689C4.49191 23.6943 5.03008 23.7634 5.72096 23.7961C6.01368 23.8089 8.99723 23.818 11.9826 23.818C14.968 23.818 17.9533 23.8143 18.2388 23.7998C19.0387 23.7621 19.5033 23.6998 20.0169 23.567C21.4332 23.2016 22.6059 22.2416 23.2441 20.9252C23.565 20.2634 23.7277 19.6198 23.8013 18.6858C23.8173 18.4821 23.8241 15.2354 23.8241 11.9931C23.8241 8.75014 23.8168 5.50941 23.8008 5.30578C23.7262 4.35669 23.5635 3.7185 23.2323 3.04396C22.9604 2.49178 22.6586 2.07941 22.2205 1.65778C21.4385 0.910867 20.4822 0.456321 19.3426 0.291957C18.7904 0.212139 18.6804 0.188503 15.855 0.183594H12.0079Z" fill="url(#paint0_radial_0_2421)"/>
<path d="M12.0079 0.183594C7.0731 0.183594 5.62988 0.188685 5.34934 0.211957C4.33664 0.296139 3.70648 0.455594 3.01995 0.797412C2.49088 1.06014 2.07362 1.36468 1.66181 1.79159C0.911837 2.57014 0.457305 3.52796 0.292765 4.6665C0.212767 5.21923 0.189495 5.33196 0.184768 8.15523C0.18295 9.09632 0.184768 10.3349 0.184768 11.9961C0.184768 16.9271 0.190222 18.3689 0.213858 18.6489C0.295674 19.6343 0.450215 20.2543 0.777477 20.9325C1.40291 22.2307 2.59742 23.2052 4.00465 23.5689C4.49191 23.6943 5.03008 23.7634 5.72096 23.7961C6.01368 23.8089 8.99723 23.818 11.9826 23.818C14.968 23.818 17.9533 23.8143 18.2388 23.7998C19.0387 23.7621 19.5033 23.6998 20.0169 23.567C21.4332 23.2016 22.6059 22.2416 23.2441 20.9252C23.565 20.2634 23.7277 19.6198 23.8013 18.6858C23.8173 18.4821 23.8241 15.2354 23.8241 11.9931C23.8241 8.75014 23.8168 5.50941 23.8008 5.30578C23.7262 4.35669 23.5635 3.7185 23.2323 3.04396C22.9604 2.49178 22.6586 2.07941 22.2205 1.65778C21.4385 0.910867 20.4822 0.456321 19.3426 0.291957C18.7904 0.212139 18.6804 0.188503 15.855 0.183594H12.0079Z" fill="url(#paint1_radial_0_2421)"/>
<path d="M12.0002 3.27148C9.63012 3.27148 9.33267 3.28185 8.40179 3.32421C7.47273 3.36676 6.83857 3.51385 6.28367 3.72967C5.70969 3.95258 5.2228 4.25076 4.73772 4.73603C4.25228 5.22112 3.95411 5.70803 3.73048 6.28185C3.51412 6.83694 3.36685 7.4713 3.32504 8.40003C3.2834 9.33094 3.27249 9.62858 3.27249 11.9988C3.27249 14.3689 3.28304 14.6655 3.32522 15.5964C3.36794 16.5255 3.51503 17.1597 3.73066 17.7146C3.95374 18.2886 4.25192 18.7755 4.73717 19.2606C5.22207 19.746 5.70896 20.0449 6.28258 20.2678C6.83784 20.4837 7.47218 20.6308 8.40106 20.6733C9.33194 20.7157 9.62921 20.726 11.9991 20.726C14.3694 20.726 14.666 20.7157 15.5968 20.6733C16.5259 20.6308 17.1608 20.4837 17.7161 20.2678C18.2899 20.0449 18.776 19.746 19.2609 19.2606C19.7464 18.7755 20.0445 18.2886 20.2682 17.7148C20.4827 17.1597 20.63 16.5253 20.6736 15.5966C20.7154 14.6657 20.7263 14.3689 20.7263 11.9988C20.7263 9.62858 20.7154 9.33112 20.6736 8.40021C20.63 7.47112 20.4827 6.83694 20.2682 6.28203C20.0445 5.70803 19.7464 5.22112 19.2609 4.73603C18.7755 4.25058 18.29 3.95239 17.7155 3.72967C17.1592 3.51385 16.5246 3.36676 15.5956 3.32421C14.6647 3.28185 14.3683 3.27148 11.9975 3.27148H12.0002ZM11.2173 4.84421C11.4497 4.84385 11.709 4.84421 12.0002 4.84421C14.3303 4.84421 14.6065 4.85258 15.5267 4.89439C16.3775 4.9333 16.8394 5.07548 17.147 5.19494C17.5542 5.35312 17.8446 5.54221 18.1499 5.84767C18.4553 6.15312 18.6444 6.44403 18.8029 6.8513C18.9224 7.15858 19.0647 7.62039 19.1035 8.4713C19.1453 9.3913 19.1544 9.66767 19.1544 11.9968C19.1544 14.3258 19.1453 14.6022 19.1035 15.5222C19.0646 16.3731 18.9224 16.8349 18.8029 17.1422C18.6448 17.5495 18.4553 17.8395 18.1499 18.1448C17.8444 18.4502 17.5544 18.6393 17.147 18.7975C16.8397 18.9175 16.3775 19.0593 15.5267 19.0982C14.6067 19.14 14.3303 19.1491 12.0002 19.1491C9.66993 19.1491 9.39376 19.14 8.47379 19.0982C7.62291 19.0589 7.1611 18.9168 6.85329 18.7973C6.44603 18.6391 6.15513 18.45 5.84969 18.1446C5.54424 17.8391 5.35516 17.5489 5.19661 17.1415C5.07716 16.8342 4.9348 16.3724 4.89608 15.5215C4.85426 14.6015 4.8459 14.3251 4.8459 11.9946C4.8459 9.66403 4.85426 9.38912 4.89608 8.46912C4.93499 7.61821 5.07716 7.15639 5.19661 6.84876C5.35479 6.44148 5.54424 6.15058 5.84969 5.84512C6.15513 5.53967 6.44603 5.35058 6.85329 5.19203C7.16092 5.07203 7.62291 4.93021 8.47379 4.89112C9.27886 4.85476 9.59085 4.84385 11.2173 4.84203V4.84421ZM16.6586 6.2933C16.0805 6.2933 15.6114 6.76185 15.6114 7.34021C15.6114 7.91839 16.0805 8.38748 16.6586 8.38748C17.2368 8.38748 17.7059 7.91839 17.7059 7.34021C17.7059 6.76203 17.2368 6.29294 16.6586 6.29294V6.2933ZM12.0002 7.51694C9.52521 7.51694 7.51854 9.52367 7.51854 11.9988C7.51854 14.4738 9.52521 16.4797 12.0002 16.4797C14.4752 16.4797 16.4812 14.4738 16.4812 11.9988C16.4812 9.52367 14.4752 7.51694 12.0002 7.51694ZM12.0002 9.08967C13.6067 9.08967 14.9092 10.392 14.9092 11.9988C14.9092 13.6053 13.6067 14.9078 12.0002 14.9078C10.3935 14.9078 9.09122 13.6053 9.09122 11.9988C9.09122 10.392 10.3935 9.08967 12.0002 9.08967Z" fill="white"/>
</g>
<defs>
<radialGradient id="paint0_radial_0_2421" cx="0" cy="0" r="1" gradientUnits="userSpaceOnUse" gradientTransform="translate(6.46339 25.6383) rotate(-90) scale(23.4234 21.7909)">
<stop stop-color="#FFDD55"/>
<stop offset="0.1" stop-color="#FFDD55"/>
<stop offset="0.5" stop-color="#FF543E"/>
<stop offset="1" stop-color="#C837AB"/>
</radialGradient>
<radialGradient id="paint1_radial_0_2421" cx="0" cy="0" r="1" gradientTransform="matrix(2.05559 10.2667 -42.3291 8.47576 -3.77588 1.88617)" gradientUnits="userSpaceOnUse">
<stop stop-color="#3771C8"/>
<stop offset="0.128" stop-color="#3771C8"/>
<stop offset="1" stop-color="#6600FF" stop-opacity="0"/>
</radialGradient>
<clipPath id="clip0_0_2421">
<rect width="24" height="24" fill="white"/>
</clipPath>
</defs>
</svg>
